# xmcd CD database file
#
# Track frame offsets:
#	150
#	17865
#	43710
#	61050
#	84255
#	107913
#	127499
#	149569
#	172493
#	191086
#	207812
#
# Disc length: 3021 seconds
#
# Revision: 2
# Processed by: cddbd v1.5.2PL0 Copyright (c) Steve Scherf et al.
# Submitted via: CDex 1.51
#
DISCID=aa0bcb0b
DTITLE=Thomas Hufschmidt - Leonardo Club Takes
DYEAR=2007
DGENRE=Jazz
TTITLE0=Misty   feat. Stevie Woods
TTITLE1=God Bless The Child   feat. Harriet Lewis
TTITLE2=Aqua De Beber   feat. Rosanni Reis
TTITLE3=Dindi   feat. Rosanni Reis
TTITLE4=Save Your Love For Me   feat. Harriet Lewis
TTITLE5=This Masquerade   feat. Harriet Lewis
TTITLE6=Since I Fell For You   feat. Stevie Woods
TTITLE7=Sina   feat. Rosanni Reis
TTITLE8=Hard Driving Mama   feat. Harriet Lewis
TTITLE9=Serado   feat. Rosanni Reis
TTITLE10=For Igor
EXTD=YEAR: 2007
EXTT0=
EXTT1=
EXTT2=
EXTT3=
EXTT4=
EXTT5=
EXTT6=
EXTT7=
EXTT8=
EXTT9=
EXTT10=
PLAYORDER=
